<?xml version="1.0" encoding="UTF-8"?><svg id="a" xmlns="http://www.w3.org/2000/svg" width="300" height="300" viewBox="0 0 300 300"><path d="M254.55,65.1c1.07.61.91,3.99-.18,4.43-13.4-3.95-10.26,6.16-1.07,10.72l.68.84c-1.79,3.48-4.14,9.26,2.11,9.2,1.56,1.21.12,1.93-1.22,2.34,2.32-1.21,4.66-2.34,7.01-3.38.48.8,1.09.4,1.85-1.19,4.38-2.89,8.14-5.9,8.42-11.64.18-3.61-.76-6.05-4.66-5.26-.6.54-1.59,1.41-2.34.68-.26-.26-1.01-5.84-.31-6.39.34.68.5.68,1.21.73,5.43.44,10.2-.22,15.18,1.84,10.66,4.42,16.62,14.44,16.61,25.63,0,.84-.22,3.84-.38,4.52-.06.25-.6.21-.68.51-2.94,11.43-11.77,19.13-23.61,19.94-10.91.75-28.63-3.37-35.78,6.78-.24.34-.1.98-.3,1.28-.16.25-.8.28-1.13.82-1.21,1.97-1.87,7.78-1.59,10.08s2.78,7.07,4.58,8.81c7.96,7.74,20.03,2.21,28.62,8.87,13.31,10.45,11.67,35.47-4.6,42.15-6.3,2.58-14.54,1.63-21.35,1.7-.6,0-1.58-.23-1.95.36l-.76.23c-6.07-8.03-11.79-17.19-15.34-26.93-5.38-14.78-5.46-30.34-5.41-45.82-.85.46-6.8,4.09-6.83,4.49-.41,6.7-.25,14.52.31,21.21,1.48,17.45,6.65,27.13,14.86,41.98.15.28.23.6.3.93s.09.7.1,1.06c-.47.32-.47.64,0,.97l-.36.45-.11.47c-50.15.08-100.32.1-150.5.07l-.44-.54c.65.06.15,1.07-1.06.71-.07.94-.38.86-.71,0,.55-2.69,2.61-6.54,4.42-8.7.3-.36,1.22-.29,1.7-.18l6.82,1.79c3.41.99,4.85.51,4.34-1.46-11.46-2.11-22.8-6.93-32.85-13.33-2.27-.75-2.99,1.01-.94,2.25,3.88,2.33,7.91,4.51,12.09,6.53,2.04,1.1,1.97,1.4.97,3.31-1.72,3.29-4.93,7.77-7.18,10.88l-1.42,1.01,1.06-2.48-1.22.92-21.47-.21c.18-.54-.03-.75-.35,0-9.45-.14-19.44-8.2-20.88-17.59s.02-17.48,6.14-24.28c.71-.79,4.18-3.08,5.21-3.66s3.63-.87,3.86-2.34c.33.02.67.06.99.14s.6.17.85.33c12.94,8.46,23.93,15.42,38.65,20.81,29.45,10.77,62.31,11.47,86.93-10.36,8.29-7.35,13.78-16.56,12.94-27.96,20.68-6.04,38.64-16.12,57.16-26.7,1.94-1.11,11.62-6.94,12.38-8.83,1.12-2.85-1.71-5.82-4.63-4.78-21.12,13.66-43.35,26.24-67.59,33.41-8.33-10.95-25.01-19.85-38.92-17.79-9.61,1.42-18,11.51-13.11,20.89,7.27,13.94,32.95,9.25,45.44,6.51l1.53.08c1.1,7.49-4.5,14.57-9.76,19.4-14.02,12.87-33.71,17.53-52.46,15.82-4.54-.41-12.47-1.3-16.45-3.13-.3-.14-.47-.9-.38-1.29,2.3-11.36,3.13-23.11,2.48-35.24-1.4-49.66,54.5-80.53,95.6-51.62,3.97,2.79,16.81,14.43,16.99,18.83.08,1.87-16.53,7.28-19.41,7.65-1.85,2.45,1.69,1.94,3.31,1.59,7.23-1.56,14.48-5.29,21.17-8.79,2.77-1.45,13.84-8.12,15.46-10.33.84-1.15.34-2.4-1.11-2.1l-8.47,6.14c-1.3,1.05-2.67,1.65-4.11,1.8-8.04-12.2-18.68-22.05-32.18-28l-1.09-1.25,1.44-.53,76.06.2.86-1.09Z" fill="#f1f1f1"/><path d="M128.32,65.46l-.67,1.11c-16.61,5.92-30.3,18.42-38.07,34.32-7.28,14.9-7.24,29.4-6.66,45.52.3,2.91-1.3,19.2-3.33,19.78s-14.31-5.52-17.16-6.97c-4.67-2.37-9.25-5-13.66-7.82-.34-.21-.61-.53-.89-.85s-.53-.68-.76-1.05c3.59,1.75,6.87-1.73,9.2-4.09.31-.32,1.94-1.46,2.04-1.68,1.89-4.28,2.98-7.96,1.77-12.74-1.13-4.49-5.48-9.44-9.64-10.93-7.35-2.62-15.75-.91-23.42-1.4-19.92-1.27-30.92-22.51-21.45-39.85.21-.38.75-.06,1.07-.48.39-.5.62-2.31.79-2.51.11-.13,1.97-1.34,2.64-1.99,5.1-4.96,10.56-7.24,18.03-7.66,31.29-1.77,64.1,1.46,95.54-.18,1.63,1.01,2.88-.53,4.63-.53Z" fill="#f1f1f1"/><path d="M169.1,55.17c.56.92,1.69,3.48,2.03,4.53.37,1.13.81,5.19.97,5.42.43.65,3.35,1.09,4.09,1.4,10.1,4.26,20.33,11.58,27.3,20.04,2.25,2.74,4.11,5.82,6.25,8.65.45.11,3.83-2.08,4.51-2.52,1.48-.96,6.56-5.23,7.59-5.54,1.93-.58,3.25,1.5,1.87,3.21s-8.66,6.27-10.88,7.65c-5.95,3.72-12.79,7.36-19.43,9.65-2.22.76-7.43,2.59-9.56,2.46-1.81-.11-2.75-2.4-.88-3.33,6.6-1.67,13.24-3.59,19.11-7.12-14.85-24.7-44.88-35.14-72.16-25.36-17.96,6.44-32.78,22.83-37.3,41.42-3.64,15-.47,30.62-3.05,45.88-.19,1.12-1.65,6.55-1.27,6.99,20.76,5.55,42.6,4.65,60.93-7.27,8-5.2,17.09-13.64,17.05-23.91-12.95,2.39-29.86,6.51-41.81-.92-11.27-7-7.7-21.74,3.63-26.45,10.39-4.31,26.28,1.42,34.96,7.72,3.48,2.52,5.97,5.67,8.71,8.92,24.08-7.5,46.16-19.78,67.19-33.43,3.94-1.05,6.49,1.75,5.61,5.61-.41,1.81-6.96,5.58-8.82,6.78-18.71,12.11-39.56,22.54-60.95,28.95,1.73,13.59-7.75,24.73-17.99,32.19-37.69,27.44-89.01,9.56-122.8-15.54-1.45-1.07-6.13-4.2-6.58-5.65-1.14-3.69,1.14-6.63,4.96-6.02,5.07,2.95,9.76,6.69,14.74,9.9,10.12,6.55,20.82,12.31,32.28,16.16,4.97-13.98,1.48-29.55,3.23-43.95,2.79-22.94,18.01-43.65,38.83-53.37,2.26-1.06,4.63-1.75,6.86-2.89.16-.08.67.07,1.05-.18.7-.47,1.16-4.34,1.53-5.57s1.05-2.72,1.67-3.82c-.29-2.06,2.09-4.25,3.62-5.64,7.95-7.24,20.89-7.55,29.1-.58,1.57,1.33,4.03,3.44,3.8,5.51Z" fill="#b2b2b2"/><path d="M122.64,234.6l1.35.68c13.12,17.82,40.95,17.92,54.03,0l1.35-.69c.68.37,1.86.35,2.64.36,19.56.4,39.83-.93,59.25-.02,6.67.31,12.65,1.95,15.56,8.55,1.05,2.39,1.37,8.25.52,10.68-.14.39-3.07,4.96-3.39,5.26-.93.85-5.54,3.24-6.76,3.45-65.69.69-131.61.82-197.27-.07-7.63-2.2-11.02-8.14-10.26-15.98.68-7,6.75-11.05,13.28-11.89,22.35,1.16,46.38-1.65,68.5.32.69.06,1.37.4,1.19-.67Z" fill="#f1f1f1"/><path d="M226.9,196.66c-6.46-10.3-11.67-20.28-14.3-32.33-2.39-10.95-2.17-21.85-1.95-33.03.2-.67,2.88-2.21,3.65-2.73.47-.32,4.61-3.04,4.79-2.83-.6,20.33-.11,38.9,9.75,57.1,1.91,3.52,8.29,14.22,10.82,16.66.12.12.23.24.35.35.75,1.12,1.51,2.18,2.28,3.18.14.28.92,2.31,1.07,2.77.29.91.67,2.36,0,3,.26,1.84.25,2.59-.37,4.32-.29.81-1.03,2.39-1.56,2.69-1.65,2.8-5.01,4.15-7.8,5.32-1.96.68-4.05.9-6.29.68-.76.19-1.32.08-1.69-.32l-.06.47c-13.58-.14-27.07-.15-40.47-.02l-.25-.45c-.14,1.12-.4,2.28-.78,3.47.53.37-.09,2.06-.81,2.2-.67,1.88-2.75,5.74-3.9,7.45-13.35,19.82-43.35,19.71-56.74,0-1.71-2.51-3.44-6.39-4.35-9.3-.29-.92-.41-3.51-1.19-3.78l-47.48-.03c-11.01-2.42-13.29-11.21-7.97-20.58,2.63-4.63,6.12-9.02,8.83-13.65-3.38-2.19-7.33-3.7-10.84-5.79-1.18-.7-4.45-2.26-4.37-3.75.09-1.75,1.75-1.99,3.18-1.44,7.96,4.87,16.77,9.32,25.82,11.76,1.29.35,6.84,1.21,7.2,1.66.6.74.49,2.45-.39,2.87-2.59,1.26-11.54-2.64-12.52-1.99-1.67,2.67-3.17,5.54-4.86,8.19l.32.37c-2.19,3.25-4.16,6.66-5.9,10.23.43.72.52,1.32.26,1.81,1.99,1.23,4.24,2.07,6.98,1.69,13.46.24,26.74.15,39.83-.28l6.14-.46c34.8-.22,69.6-.31,104.39-.28l6.13.38.23-.62c2.33-.75,2.4-2.33,1.68-4.39-.77.15-1.25-.62-.84-1.37-1.98-1.23-4.08-4.41-4.26-6.74-1.21-.21-2.3-1.38-1.77-2.48Z" fill="#b2b2b2"/><path d="M132.57,55.88l-.89-1.42c-18.81-.17-37.71.36-56.47-.27-12.16-4.92-10.31-21.73,3.26-22.79h123.08c7.3-.14,13.36,4.9,12.53,12.56-.65,5.98-4.83,9.97-10.78,10.49-10.2.9-22.18-.33-32.56-.21-.47,0-1.95,0-1.65.93-8.22-13.47-28.74-13.01-36.52.71Z" fill="#f1f1f1"/><path d="M264.84,65.46c.57,1.77.74,4.17.71,6.03.92.06,1.02-.87,1.95-1.05,2.25-.43,4.57.26,5.06,2.73,1.06,5.34-.72,9.38-4.72,12.85-1.02.89-2.95,1.81-3.72,2.66-.4.45-3.74,7.51-4.96,6.21-.78-.84,2.75-3.85,2.83-4.96-.7-.55-6.53,4.37-8.16,3.37s2.51-1.51,2.48-2.31c-6.57.36-5.77-5.84-2.91-9.76-2.65-2.06-5.85-3.47-7.67-6.44-4.2-6.84,3.56-8.28,8.45-5.79.62-1.25.15-2.74.36-3.9,1.53-8.56,8.02-6.73,10.28.35Z" fill="#b2b2b2"/><path d="M55.5,50.09c-1.13,1.89-6.04,4.15-8.21,4.37-5.88.61-8.25.31-13.04-2.56-.36-.21-1.15-.18-1.27-.32-.17-.22.08-.88-.14-1.27-1.12-1.99-2.07-1.63-2.38-4.89s-.09-4.82.9-7.6c.19-.55.04-1.16.26-1.69.12-.29,3.92-3.39,4.41-3.63,3.36-1.7,12.62-1.53,15.88.33,5.62,3.22,6.72,12.03,3.59,17.26Z" fill="#f1f1f1"/><path d="M233.63,221.13c-1.03.43-1.69.13-1.42,1.42.77.02,1.54-.02,2.31,0,.3,0,1.28-.15.7.36l-49.94-1.08-.94,3.21,1.06-1.77c-.17.6.55,2.15.36,2.48-.02.04-.58-.34-.9-.05-.67.6-.11,1.85-1.58,1.47.62-1.75.66-4.13,1.6-5.67h40.78c.13,0,.59-.35,1.05-.37,2.3-.09,4.63.09,6.93.01Z" fill="#fafafa"/><path d="M39.67,199.14c.08-.61-.87-.97.17-1.06,6.76-.62,14.42.47,21.28,0v.71c-6.63-.02-13.26.03-19.9-.03-.67,0-1.14.38-1.2.38-.12,0-.24,0-.35,0Z" fill="#eee"/><path d="M240.02,199.85c.08.07.53-.03.85.33s.92,3.57,1.98,2.5c-.79,1.61.44,1.64.99,2.74.67,1.34.39,2.91.43,4.35l-.7-1.06c-.61,1.33.66,1.86.7,2,.34,1.21-.44,1.02-.68,1.47-.12.22.08.74-.11,1.04-.26.43-1.5.18-.62,1.68l-.71-.18.18,2.14-.89-1.07c.35-.6,1.2-3.01,1.38-3.76,1.17-4.95-.51-8.04-2.8-12.19Z" fill="#f8f8f8"/><path d="M74.42,198.79c.64-.29.79-.72.71-1.42h.35c.04.19-.03.71,0,.71h151.06c.13-.57-.37-.25-.44-.36-.39-.55-.33-.77-.26-1.41l1.06.35c.46.73,1.18,1.55,1.77,2.48l-153.05.03c-.52.17-.91-.29-1.2-.38Z" fill="#efefef"/><path d="M160.43,126.95c.41.39,1.94,1.8,1.57,2.33-2.81.44-5.57,1.31-8.38,1.73-6.82,1.03-18.98,2.16-24.77-2.08s-.87-10.02,4.35-11.25c7.96-1.87,21.46,3.75,27.23,9.27Z" fill="#f1f1f1"/><path d="M148.53,54.46l3.09-.21c2.6.34,5.11,1.35,7.55,3.04.16.15.58.56.71.71.19.68.55,1.15,1.06,1.42.19.28.58.82.71,1.06.93,1.47,1.05,2.18.35,2.13-7.54-1-15.15-.88-22.69,0,.85-4.01,5.21-7.78,9.22-8.15Z" fill="#fefefe"/><path d="M159.17,57.3c-1.03-.9-4.52-.92-4.86-1.85-.07-.19.28-.6.25-.62-.45-.35-5.14-.44-6.03-.36,4.01-1.19,7.72.2,10.64,2.84Z" fill="#f6f6f6"/><path d="M161.65,60.49c.41.75,1.28,1.4,1.06,2.48-.45.16-.67-.35-.71-.35l.35-.17-.7-1.95Z" fill="#f6f6f6"/><path d="M160.94,59.43c-.93.22-.88-.69-1.06-1.42.57.67.6.75,1.06,1.42Z" fill="#f6f6f6"/><path d="M128.32,225.38c-.19-.4-.31-.84-.34-1.31-2.7-1.59.45-3.52,2.26-1.86l44.78-.16c.34.24-.88,4.69-2.11,4.37-.05,1.01-.37,1.97-.97,2.87-.52,1.99-3.38,4.38-4.96,5.67-1.73.86-5.71,2.13-6.56,0-.03.28-.13.7-.32.71-5.71.22-12.76.34-18.42,0-1.19.23-1.92,0-2.18-.71.28.7.06.99-.66,1.02l-3.06-.67c-1.67-1.3-2.42-1.85-3.9-3.55l-.42-1.47c-1.8-1.47-2.84-3.11-3.13-4.92Z" fill="#fefefe"/><path d="M166.97,234.96c-9.37,7.68-21.76,7.72-31.2.35,1.39-.99,2.37-.02,3-.02.36,0,.62-.33.72-.33h20.92c.21,0,1.01.36,1.76.38,1.52.04,3.27-.26,4.8-.38Z" fill="#f1f1f1"/><path d="M127.61,224.67c-.56-1.02-1.26-1.83-1.06-3.19h48.93c-.38,2.78-1.55,5.81-3.55,7.8.47-1.78.23-4.21,0-6.03,1.54-.24-.12,2.53,1.6,2.47.33-.01,1.48-2.96,1.24-3.18l-45.19.38c-.37-.07.23-1.67-1.61-1.09-.28,1.34,1.7.16.89,1.41-.64-.48-2.15-.67-1.43.36.98-1.05,1.67.92.89,1.78-.31.02-.54-.22-.71-.71Z" fill="#fafafa"/><path d="M115.2,212.62c-.37.59-1.35.35-1.95.36-13.6.14-27.2-.13-40.8,0-.81-.08-3.28-.65-3.84-1.05-.38-.27-.17-.65-.22-.73.67-1.51.93.28,1.87.79.76.42,1.69.57,2.55.64,12.88,1.12,29.11-.03,42.39-.01Z" fill="#f5f5f5"/><path d="M128.32,225.38c.17.27.23,1.04.36,1.42.42.22.45-1.54,1.06-.7.14.19-.23,1.45.18,2.12.57.95,3.25,1.3,1.95,3.55-1.82-2.09-3.71-4.26-4.26-7.09.02.04.45.3.71.71Z" fill="#f6f6f6"/><path d="M231.86,212.26c-.67-1.3,1.42-1.81.35-3.19l.71,1.77c.85.3.95-.85.96-1.33.02-.8-.22-1.47-.43-2.22l-.36,1.07c-1.28-1.27-.78-1.29-.18-2.48.24.41,1.11.84,1.33,1.68.51,2-.15,4.38-2.39,4.7Z" fill="#f7f7f7"/></svg>